<svg width="32" height="32" viewBox="0 0 32 32" fill="none" xmlns="http://www.w3.org/2000/svg">
  <!-- 
  ========================================
  LOGO GECC - INSPIRÉ DU DESIGN FOURNI
  ========================================
  Rôle : Logo de l'application GECC
  - Design professionnel avec engrenage
  - Couleurs cohérentes avec l'identité
  - Format SVG scalable
  - Représente la gestion de projet
  ========================================
  -->
  
  <!-- Fond du logo -->
  <rect width="32" height="32" rx="6" fill="#1e293b"/>
  
  <!-- Texte GECC -->
  <text x="16" y="20" font-family="Arial, sans-serif" font-size="8" font-weight="bold" text-anchor="middle" fill="#64748b">GEC</text>
  
  <!-- Engrenage vert (remplace le dernier C) -->
  <g transform="translate(20, 12)">
    <circle cx="0" cy="0" r="4" fill="#10b981"/>
    <circle cx="0" cy="0" r="2.5" fill="#1e293b"/>
    <!-- Dents de l'engrenage -->
    <rect x="-0.3" y="-5" width="0.6" height="2" fill="#10b981"/>
    <rect x="-0.3" y="3" width="0.6" height="2" fill="#10b981"/>
    <rect x="-5" y="-0.3" width="2" height="0.6" fill="#10b981"/>
    <rect x="3" y="-0.3" width="2" height="0.6" fill="#10b981"/>
    <rect x="-3.5" y="-3.5" width="1" height="1" fill="#10b981"/>
    <rect x="2.5" y="-3.5" width="1" height="1" fill="#10b981"/>
    <rect x="-3.5" y="2.5" width="1" height="1" fill="#10b981"/>
    <rect x="2.5" y="2.5" width="1" height="1" fill="#10b981"/>
  </g>
  
  <!-- Élément diagramme bleu au-dessus -->
  <g transform="translate(16, 6)">
    <!-- Carré central -->
    <rect x="-1" y="-1" width="2" height="2" fill="#2563eb"/>
    <!-- Ligne vers le carré gauche -->
    <line x1="-1" y1="0" x2="-3" y2="0" stroke="#2563eb" stroke-width="0.5"/>
    <rect x="-4" y="-0.5" width="1" height="1" fill="#2563eb"/>
    <!-- Lignes vers les cercles droits -->
    <line x1="1" y1="-1" x2="3" y2="-2" stroke="#2563eb" stroke-width="0.5"/>
    <line x1="1" y1="1" x2="3" y2="2" stroke="#2563eb" stroke-width="0.5"/>
    <!-- Cercles -->
    <circle cx="3" cy="-2" r="0.8" fill="#2563eb"/>
    <circle cx="3" cy="2" r="0.8" fill="#2563eb"/>
  </g>
  
  <!-- Texte PROJECT en dessous -->
  <text x="16" y="28" font-family="Arial, sans-serif" font-size="4" font-weight="normal" text-anchor="middle" fill="#64748b">PROJECT</text>
</svg>